<svg xmlns="http://www.w3.org/2000/svg" width="38.97" height="29.97" viewBox="0 0 38.97 29.97">
  <defs>
    <style>
      .cls-1 {
        fill: #a79582;
        fill-rule: evenodd;
      }
    </style>
  </defs>
  <path id="_-e-15" data-name="-e-15" class="cls-1" d="M3605.09,2180h-2l2.82-17h2Zm-7.09-7v-2h15s-0.28,2-1,2h-14Zm1.96-16.22h-7.05l-3.42,7.95a9.8,9.8,0,0,1,2.24-.26,8.955,8.955,0,0,1,6.32,2.25,7.841,7.841,0,0,1,2.29,4.29l-2.19.03a6.416,6.416,0,0,0-1.59-2.73,7.044,7.044,0,0,0-5.27-2.07,9.4,9.4,0,0,0-4.83,1.28l5.31-12.51h8.43Zm-4.06,23.87a9.772,9.772,0,0,0,1.06-1.37l-0.44,3.36a11.343,11.343,0,0,1-7.47,2.34,9.132,9.132,0,0,1-5.35-1.46,9.854,9.854,0,0,1-3.12-3.4l1.8-.71a7.421,7.421,0,0,0,2.59,2.74,8.418,8.418,0,0,0,4.56,1.06A8.25,8.25,0,0,0,3595.9,2180.65Zm-20.69,3.84,3.38-27.71h-4.56l1.1-1.77h5.61l-3.59,29.48h-1.94Z" transform="translate(-3574.03 -2155)"/>
</svg>
