<svg width="160" height="48" viewBox="0 0 160 48" fill="none" xmlns="http://www.w3.org/2000/svg">
<path d="M154.074 48H5.92593C2.60741 48 0 45.24 0 42V6C0 2.64 2.72593 0 5.92593 0H154.074C157.393 0 160 2.76 160 6V42C160 45.36 157.393 48 154.074 48Z" fill="black"/>
<path d="M56.1775 12.24C56.1775 13.2 55.9405 14.04 55.3479 14.64C54.6368 15.36 53.8071 15.72 52.7405 15.72C51.6738 15.72 50.8442 15.36 50.1331 14.64C49.422 13.92 49.0664 13.08 49.0664 12C49.0664 10.92 49.422 10.08 50.1331 9.36003C50.8442 8.64003 51.6738 8.28003 52.7405 8.28003C53.2146 8.28003 53.6886 8.40003 54.1627 8.64003C54.6368 8.88003 54.9923 9.12003 55.2294 9.48003L54.6368 10.08C54.1627 9.48003 53.5701 9.24003 52.7405 9.24003C52.0294 9.24003 51.3183 9.48003 50.8442 10.08C50.2516 10.56 50.0146 11.28 50.0146 12.12C50.0146 12.96 50.2516 13.68 50.8442 14.16C51.4368 14.64 52.0294 15 52.7405 15C53.5701 15 54.1627 14.76 54.7553 14.16C55.1108 13.8 55.3479 13.32 55.3479 12.72H52.7405V11.76H56.1775C56.1775 11.88 56.1775 12.12 56.1775 12.24Z" fill="white" stroke="white" stroke-width="0.2" stroke-miterlimit="10"/>
<path d="M61.6296 9.24015H58.4296V11.5201H61.3926V12.3601H58.4296V14.6401H61.6296V15.6001H57.4814V8.40015H61.6296V9.24015Z" fill="white" stroke="white" stroke-width="0.2" stroke-miterlimit="10"/>
<path d="M65.5401 15.6001H64.592V9.24015H62.5771V8.40015H67.5549V9.24015H65.5401V15.6001Z" fill="white" stroke="white" stroke-width="0.2" stroke-miterlimit="10"/>
<path d="M70.9922 15.6001V8.40015H71.9403V15.6001H70.9922Z" fill="white" stroke="white" stroke-width="0.2" stroke-miterlimit="10"/>
<path d="M75.9698 15.6001H75.0217V9.24015H73.0068V8.40015H77.8661V9.24015H75.8513V15.6001H75.9698Z" fill="white" stroke="white" stroke-width="0.2" stroke-miterlimit="10"/>
<path d="M87.2297 14.64C86.5186 15.36 85.689 15.72 84.6223 15.72C83.5556 15.72 82.726 15.36 82.0149 14.64C81.3038 13.92 80.9482 13.08 80.9482 12C80.9482 10.92 81.3038 10.08 82.0149 9.36003C82.726 8.64003 83.5556 8.28003 84.6223 8.28003C85.689 8.28003 86.5186 8.64003 87.2297 9.36003C87.9408 10.08 88.2964 10.92 88.2964 12C88.2964 13.08 87.9408 13.92 87.2297 14.64ZM82.726 14.04C83.2001 14.52 83.9112 14.88 84.6223 14.88C85.3334 14.88 86.0445 14.64 86.5186 14.04C86.9927 13.56 87.3482 12.84 87.3482 12C87.3482 11.16 87.1112 10.44 86.5186 9.96003C86.0445 9.48003 85.3334 9.12003 84.6223 9.12003C83.9112 9.12003 83.2001 9.36003 82.726 9.96003C82.2519 10.44 81.8964 11.16 81.8964 12C81.8964 12.84 82.1334 13.56 82.726 14.04Z" fill="white" stroke="white" stroke-width="0.2" stroke-miterlimit="10"/>
<path d="M89.5996 15.6001V8.40015H90.6663L94.1033 14.0401V12.6001V8.40015H95.0515V15.6001H94.1033L90.4292 9.72015V11.1601V15.6001H89.5996Z" fill="white" stroke="white" stroke-width="0.2" stroke-miterlimit="10"/>
<path d="M80.7109 26.16C77.8665 26.16 75.6146 28.32 75.6146 31.32C75.6146 34.2 77.8665 36.48 80.7109 36.48C83.5554 36.48 85.8072 34.32 85.8072 31.32C85.8072 28.2 83.5554 26.16 80.7109 26.16ZM80.7109 34.32C79.1702 34.32 77.8665 33 77.8665 31.2C77.8665 29.4 79.1702 28.08 80.7109 28.08C82.2517 28.08 83.5554 29.28 83.5554 31.2C83.5554 33 82.2517 34.32 80.7109 34.32ZM69.6887 26.16C66.8443 26.16 64.5924 28.32 64.5924 31.32C64.5924 34.2 66.8443 36.48 69.6887 36.48C72.5332 36.48 74.785 34.32 74.785 31.32C74.785 28.2 72.5332 26.16 69.6887 26.16ZM69.6887 34.32C68.148 34.32 66.8443 33 66.8443 31.2C66.8443 29.4 68.148 28.08 69.6887 28.08C71.2295 28.08 72.5332 29.28 72.5332 31.2C72.5332 33 71.2295 34.32 69.6887 34.32ZM56.5332 27.72V29.88H61.6295C61.5109 31.08 61.0369 32.04 60.4443 32.64C59.7332 33.36 58.548 34.2 56.5332 34.2C53.3332 34.2 50.9628 31.68 50.9628 28.44C50.9628 25.2 53.4517 22.68 56.5332 22.68C58.1924 22.68 59.4961 23.4 60.4443 24.24L61.985 22.68C60.6813 21.48 59.022 20.52 56.6517 20.52C52.385 20.52 48.7109 24.12 48.7109 28.44C48.7109 32.76 52.385 36.36 56.6517 36.36C59.022 36.36 60.6813 35.64 62.1035 34.08C63.5258 32.64 63.9998 30.6 63.9998 29.04C63.9998 28.56 63.9998 28.08 63.8813 27.72H56.5332ZM110.341 29.4C109.866 28.2 108.681 26.16 106.074 26.16C103.466 26.16 101.333 28.2 101.333 31.32C101.333 34.2 103.466 36.48 106.311 36.48C108.563 36.48 109.985 35.04 110.459 34.2L108.8 33C108.207 33.84 107.496 34.44 106.311 34.44C105.126 34.44 104.415 33.96 103.822 32.88L110.578 30L110.341 29.4ZM103.466 31.08C103.466 29.16 105.007 28.08 106.074 28.08C106.904 28.08 107.733 28.56 107.97 29.16L103.466 31.08ZM97.8961 36H100.148V21H97.8961V36ZM94.3406 27.24C93.748 26.64 92.7998 26.04 91.6146 26.04C89.1258 26.04 86.7554 28.32 86.7554 31.2C86.7554 34.08 89.0072 36.24 91.6146 36.24C92.7998 36.24 93.748 35.64 94.222 35.04H94.3406V35.76C94.3406 37.68 93.2739 38.76 91.6146 38.76C90.3109 38.76 89.3628 37.8 89.1258 36.96L87.2295 37.8C87.822 39.12 89.2443 40.8 91.7332 40.8C94.3406 40.8 96.4739 39.24 96.4739 35.52V26.4H94.3406V27.24ZM91.7332 34.32C90.1924 34.32 88.8887 33 88.8887 31.2C88.8887 29.4 90.1924 28.08 91.7332 28.08C93.2739 28.08 94.4591 29.4 94.4591 31.2C94.4591 33 93.2739 34.32 91.7332 34.32ZM120.652 21H115.318V36H117.57V30.36H120.652C123.141 30.36 125.511 28.56 125.511 25.68C125.511 22.8 123.141 21 120.652 21ZM120.77 28.2H117.57V23.04H120.77C122.429 23.04 123.378 24.48 123.378 25.56C123.259 26.88 122.311 28.2 120.77 28.2ZM134.4 26.04C132.741 26.04 131.081 26.76 130.489 28.32L132.504 29.16C132.978 28.32 133.689 28.08 134.518 28.08C135.704 28.08 136.77 28.8 136.889 30V30.12C136.533 29.88 135.585 29.52 134.637 29.52C132.504 29.52 130.37 30.72 130.37 32.88C130.37 34.92 132.148 36.24 134.044 36.24C135.585 36.24 136.296 35.52 136.889 34.8H137.007V36H139.141V30.24C138.904 27.6 136.889 26.04 134.4 26.04ZM134.163 34.32C133.452 34.32 132.385 33.96 132.385 33C132.385 31.8 133.689 31.44 134.755 31.44C135.704 31.44 136.178 31.68 136.77 31.92C136.533 33.36 135.348 34.32 134.163 34.32ZM146.607 26.4L144.118 32.88H144L141.392 26.4H139.022L142.933 35.52L140.681 40.56H142.933L148.978 26.4H146.607ZM126.696 36H128.948V21H126.696V36Z" fill="white"/>
<path d="M12.3256 9C11.9701 9.36 11.8516 9.96 11.8516 10.68V37.2C11.8516 37.92 12.0886 38.52 12.4442 38.88L12.5627 39L27.259 24.12V24V23.88L12.3256 9Z" fill="url(#paint0_linear)"/>
<path d="M31.9999 29.16L27.1406 24.24V24V23.88L31.9999 18.96L32.1184 19.08L37.9258 22.44C39.5851 23.4 39.5851 24.96 37.9258 25.92L31.9999 29.16Z" fill="url(#paint1_linear)"/>
<path d="M32.1188 29.04L27.141 24L12.3262 39C12.9188 39.6 13.7484 39.6 14.8151 39.12L32.1188 29.04Z" fill="url(#paint2_linear)"/>
<path d="M32.1188 18.9599L14.8151 8.99994C13.7484 8.39994 12.9188 8.51994 12.3262 9.11994L27.141 23.9999L32.1188 18.9599Z" fill="url(#paint3_linear)"/>
<path opacity="0.2" d="M32.0002 28.9202L14.8151 38.7602C13.8669 39.3602 13.0373 39.2402 12.4447 38.7602L12.3262 38.8802L12.4447 39.0002C13.0373 39.4802 13.8669 39.6002 14.8151 39.0002L32.0002 28.9202Z" fill="black"/>
<path opacity="0.12" d="M12.3256 38.7601C11.9701 38.4001 11.8516 37.8001 11.8516 37.0801V37.2001C11.8516 37.9201 12.0886 38.5201 12.4442 38.8801V38.7601H12.3256Z" fill="black"/>
<path opacity="0.12" d="M37.9259 25.56L32 28.92L32.1185 29.04L37.9259 25.68C38.7556 25.2 39.1111 24.6 39.1111 24C39.1111 24.6 38.637 25.08 37.9259 25.56Z" fill="black"/>
<path opacity="0.25" d="M14.8145 9.12003L37.9256 22.44C38.6367 22.92 39.1108 23.4 39.1108 24C39.1108 23.4 38.7553 22.8 37.9256 22.32L14.8145 9.00003C13.1553 8.04003 11.8516 8.76003 11.8516 10.68V10.8C11.8516 9.00003 13.1553 8.16003 14.8145 9.12003Z" fill="white"/>
<defs>
<linearGradient id="paint0_linear" x1="25.8363" y1="10.4518" x2="5.69895" y2="30.3405" gradientUnits="userSpaceOnUse">
<stop stop-color="#00A0FF"/>
<stop offset="0.00657445" stop-color="#00A1FF"/>
<stop offset="0.2601" stop-color="#00BEFF"/>
<stop offset="0.5122" stop-color="#00D2FF"/>
<stop offset="0.7604" stop-color="#00DFFF"/>
<stop offset="1" stop-color="#00E3FF"/>
</linearGradient>
<linearGradient id="paint1_linear" x1="40.0998" y1="24.0019" x2="11.422" y2="24.0019" gradientUnits="userSpaceOnUse">
<stop stop-color="#FFE000"/>
<stop offset="0.4087" stop-color="#FFBD00"/>
<stop offset="0.7754" stop-color="#FFA500"/>
<stop offset="1" stop-color="#FF9C00"/>
</linearGradient>
<linearGradient id="paint2_linear" x1="29.4246" y1="26.7554" x2="2.11687" y2="53.7262" gradientUnits="userSpaceOnUse">
<stop stop-color="#FF3A44"/>
<stop offset="1" stop-color="#C31162"/>
</linearGradient>
<linearGradient id="paint3_linear" x1="8.64878" y1="0.211499" x2="20.8428" y2="12.255" gradientUnits="userSpaceOnUse">
<stop stop-color="#32A071"/>
<stop offset="0.0685" stop-color="#2DA771"/>
<stop offset="0.4762" stop-color="#15CF74"/>
<stop offset="0.8009" stop-color="#06E775"/>
<stop offset="1" stop-color="#00F076"/>
</linearGradient>
</defs>
</svg>
