<svg width="161" height="48" viewBox="0 0 161 48" fill="none" xmlns="http://www.w3.org/2000/svg">
<path d="M154.375 47.5H5.9375C2.6125 47.5 0 44.7687 0 41.5625V5.9375C0 2.6125 2.73125 0 5.9375 0H154.375C157.7 0 160.312 2.73125 160.312 5.9375V41.5625C160.312 44.8875 157.7 47.5 154.375 47.5Z" fill="black"/>
<path d="M36.5794 24.1059C36.5794 20.7809 39.3107 19.2372 39.4294 19.1185C37.8857 16.8622 35.5107 16.6247 34.6794 16.5059C32.6607 16.2684 30.7607 17.6934 29.6919 17.6934C28.6232 17.6934 27.0794 16.5059 25.4169 16.5059C23.2794 16.5059 21.2607 17.8122 20.0732 19.7122C17.8169 23.6309 19.4794 29.5684 21.7357 32.7747C22.8044 34.3184 24.1107 36.0997 25.7732 36.0997C27.4357 35.9809 28.0294 35.0309 30.0482 35.0309C32.0669 35.0309 32.5419 36.0997 34.3232 36.0997C36.1044 36.0997 37.1732 34.556 38.2419 32.8934C39.5482 31.1122 40.0232 29.3309 40.0232 29.2122C40.0232 29.3309 36.5794 28.0247 36.5794 24.1059Z" fill="white"/>
<path d="M33.2545 14.4873C34.0858 13.4186 34.7983 11.8748 34.5608 10.3311C33.2545 10.3311 31.7108 11.1623 30.7608 12.3498C29.9295 13.2998 29.217 14.8436 29.4545 16.3873C30.8795 16.3873 32.4233 15.5561 33.2545 14.4873Z" fill="white"/>
<path d="M57.3602 32.1812H51.7789L50.4727 36.2187H48.0977L53.4414 21.4937H55.8164L61.1602 36.2187H58.7852L57.3602 32.1812ZM52.3727 30.3999H56.8852L54.6289 23.8687H54.5102L52.3727 30.3999Z" fill="white"/>
<path d="M72.6787 30.8749C72.6787 34.1999 70.8975 36.3374 68.1662 36.3374C66.6225 36.3374 65.435 35.6249 64.8412 34.4374V39.7812H62.585V25.5312H64.7225V27.3124C65.3162 26.1249 66.6225 25.4124 68.1662 25.4124C70.7787 25.2937 72.6787 27.5499 72.6787 30.8749ZM70.3037 30.8749C70.3037 28.7374 69.235 27.3124 67.4537 27.3124C65.7912 27.3124 64.6037 28.7374 64.6037 30.8749C64.6037 33.0124 65.7912 34.4374 67.4537 34.4374C69.235 34.4374 70.3037 33.0124 70.3037 30.8749Z" fill="white"/>
<path d="M84.4346 30.8749C84.4346 34.1999 82.6533 36.3374 79.9221 36.3374C78.3783 36.3374 77.1908 35.6249 76.5971 34.4374V39.7812H74.3408V25.5312H76.4783V27.3124C77.0721 26.1249 78.3783 25.4124 79.9221 25.4124C82.6533 25.2937 84.4346 27.5499 84.4346 30.8749ZM82.1783 30.8749C82.1783 28.7374 81.1096 27.3124 79.3283 27.3124C77.6658 27.3124 76.4783 28.7374 76.4783 30.8749C76.4783 33.0124 77.6658 34.4374 79.3283 34.4374C81.1096 34.4374 82.1783 33.0124 82.1783 30.8749Z" fill="white"/>
<path d="M92.2727 32.0624C92.3914 33.4874 93.8164 34.4374 95.8352 34.4374C97.7352 34.4374 99.0414 33.4874 99.0414 32.1811C99.0414 30.9936 98.2102 30.3999 96.3102 29.9249L94.4102 29.4499C91.6789 28.7374 90.4914 27.5499 90.4914 25.5311C90.4914 23.0374 92.7477 21.2561 95.8352 21.2561C98.9227 21.2561 101.06 23.0374 101.179 25.5311H98.9227C98.8039 24.1061 97.6164 23.1561 95.8352 23.1561C94.0539 23.1561 92.8664 24.1061 92.8664 25.4124C92.8664 26.4811 93.6977 27.0749 95.5977 27.5499L97.2602 27.9061C100.229 28.6186 101.535 29.8061 101.535 31.9436C101.535 34.6749 99.2789 36.4561 95.8352 36.4561C92.5102 36.4561 90.3727 34.7936 90.2539 32.0624H92.2727Z" fill="white"/>
<path d="M106.047 22.9185V25.4122H108.066V27.1935H106.047V33.131C106.047 34.081 106.404 34.4372 107.354 34.4372C107.591 34.4372 107.947 34.4372 108.066 34.4372V36.2185C107.829 36.3372 107.354 36.3372 106.879 36.3372C104.741 36.3372 103.91 35.506 103.91 33.4872V27.3122H102.366V25.531H103.91V23.0372H106.047V22.9185Z" fill="white"/>
<path d="M109.372 30.8749C109.372 27.5499 111.391 25.4124 114.478 25.4124C117.566 25.4124 119.585 27.5499 119.585 30.8749C119.585 34.3186 117.566 36.3374 114.478 36.3374C111.272 36.3374 109.372 34.1999 109.372 30.8749ZM117.328 30.8749C117.328 28.4999 116.26 27.1936 114.478 27.1936C112.697 27.1936 111.628 28.4999 111.628 30.8749C111.628 33.2499 112.697 34.5561 114.478 34.5561C116.26 34.5561 117.328 33.1311 117.328 30.8749Z" fill="white"/>
<path d="M121.366 25.4124H123.504V27.3124C123.86 26.1249 124.81 25.4124 126.116 25.4124C126.472 25.4124 126.71 25.4124 126.829 25.5311V27.5499C126.71 27.4311 126.235 27.4311 125.879 27.4311C124.454 27.4311 123.622 28.3811 123.622 29.9249V36.3374H121.366V25.4124Z" fill="white"/>
<path d="M137.041 33.0122C136.685 34.9122 134.785 36.3372 132.41 36.3372C129.322 36.3372 127.304 34.1997 127.304 30.8747C127.304 27.5497 129.204 25.2935 132.291 25.2935C135.26 25.2935 137.16 27.3122 137.16 30.6372V31.3497H129.56V31.4685C129.56 33.2497 130.747 34.556 132.41 34.556C133.597 34.556 134.547 33.9622 134.904 33.0122H137.041ZM129.56 29.806H134.904C134.904 28.1435 133.835 27.0747 132.291 27.0747C130.747 27.0747 129.679 28.2622 129.56 29.806Z" fill="white"/>
<path d="M52.0168 10.3311C54.1543 10.3311 55.3418 11.6373 55.3418 13.8936C55.3418 16.1498 54.1543 17.4561 52.0168 17.4561H49.4043V10.3311H52.0168ZM50.5918 16.5061H51.898C53.323 16.5061 54.273 15.5561 54.273 14.0123C54.273 12.4686 53.4418 11.5186 51.898 11.5186H50.5918V16.5061Z" fill="white"/>
<path d="M56.6475 14.7249C56.6475 12.9437 57.5975 11.9937 59.1412 11.9937C60.685 11.9937 61.635 13.0624 61.635 14.7249C61.635 16.5062 60.685 17.4562 59.1412 17.4562C57.5975 17.5749 56.6475 16.5062 56.6475 14.7249ZM60.5662 14.7249C60.5662 13.5374 60.0912 12.9437 59.1412 12.9437C58.1912 12.9437 57.7162 13.6562 57.7162 14.7249C57.7162 15.9124 58.1912 16.6249 59.1412 16.6249C60.0912 16.6249 60.5662 15.9124 60.5662 14.7249Z" fill="white"/>
<path d="M68.4037 17.4561H67.335L66.2662 13.5373H66.1475L65.0787 17.4561H64.01L62.585 12.1123H63.6537L64.6037 16.1498H64.7225L65.7912 12.1123H66.86L67.9287 16.1498H68.0475L68.9975 12.1123H70.0662L68.4037 17.4561Z" fill="white"/>
<path d="M71.1357 12.1124H72.2045V12.9437H72.3232C72.5607 12.3499 73.1545 11.9937 73.867 11.9937C75.0545 11.9937 75.767 12.7062 75.767 14.0124V17.4562H74.6982V14.2499C74.6982 13.4187 74.342 12.9437 73.5107 12.9437C72.6795 12.9437 72.2045 13.4187 72.2045 14.2499V17.3374H71.1357V12.1124Z" fill="white"/>
<path d="M77.3105 9.97485H78.3793V17.4561H77.3105V9.97485Z" fill="white"/>
<path d="M79.8037 14.7249C79.8037 12.9437 80.7537 11.9937 82.2975 11.9937C83.8412 11.9937 84.7912 13.0624 84.7912 14.7249C84.7912 16.5062 83.8412 17.4562 82.2975 17.4562C80.7537 17.5749 79.8037 16.5062 79.8037 14.7249ZM83.8412 14.7249C83.8412 13.5374 83.3662 12.9437 82.4162 12.9437C81.4662 12.9437 80.9912 13.6562 80.9912 14.7249C80.9912 15.9124 81.4662 16.6249 82.4162 16.6249C83.2475 16.6249 83.8412 15.9124 83.8412 14.7249Z" fill="white"/>
<path d="M85.9795 15.9124C85.9795 14.9624 86.692 14.3687 87.9982 14.3687L89.4232 14.2499V13.7749C89.4232 13.1812 89.067 12.9437 88.3545 12.9437C87.7607 12.9437 87.4045 13.1812 87.2857 13.5374H86.217C86.3357 12.5874 87.167 11.9937 88.3545 11.9937C89.6607 11.9937 90.492 12.7062 90.492 13.7749V17.4562H89.4232V16.7437H89.3045C88.9482 17.3374 88.3545 17.5749 87.642 17.5749C86.692 17.5749 85.9795 16.8624 85.9795 15.9124ZM89.4232 15.4374V14.9624L88.117 15.0812C87.4045 15.0812 87.0482 15.4374 87.0482 15.7937C87.0482 16.2687 87.5232 16.5062 87.9982 16.5062C88.8295 16.6249 89.4232 16.1499 89.4232 15.4374Z" fill="white"/>
<path d="M91.7979 14.7249C91.7979 13.0624 92.6291 11.9936 94.0541 11.9936C94.7666 11.9936 95.3603 12.3499 95.7166 12.9436H95.8353V9.97485H96.9041V17.4561H95.8353V16.6249H95.7166C95.3603 17.2186 94.7666 17.5749 94.0541 17.5749C92.7478 17.5749 91.7979 16.5061 91.7979 14.7249ZM92.9854 14.7249C92.9854 15.9124 93.5791 16.5061 94.4103 16.5061C95.2416 16.5061 95.8353 15.7936 95.8353 14.7249C95.8353 13.6561 95.2416 12.9436 94.4103 12.9436C93.4603 12.9436 92.9854 13.6561 92.9854 14.7249Z" fill="white"/>
<path d="M101.179 14.7249C101.179 12.9437 102.129 11.9937 103.672 11.9937C105.216 11.9937 106.166 13.0624 106.166 14.7249C106.166 16.5062 105.216 17.4562 103.672 17.4562C102.129 17.5749 101.179 16.5062 101.179 14.7249ZM105.216 14.7249C105.216 13.5374 104.741 12.9437 103.791 12.9437C102.841 12.9437 102.366 13.6562 102.366 14.7249C102.366 15.9124 102.841 16.6249 103.791 16.6249C104.622 16.6249 105.216 15.9124 105.216 14.7249Z" fill="white"/>
<path d="M107.71 12.1124H108.779V12.9437H108.897C109.135 12.3499 109.729 11.9937 110.441 11.9937C111.629 11.9937 112.341 12.7062 112.341 14.0124V17.4562H111.272V14.2499C111.272 13.4187 110.916 12.9437 110.085 12.9437C109.254 12.9437 108.779 13.4187 108.779 14.2499V17.3374H107.71V12.1124Z" fill="white"/>
<path d="M118.16 10.8062V12.1124H119.348V13.0624H118.16V15.7937C118.16 16.3874 118.398 16.6249 118.873 16.6249C118.992 16.6249 119.11 16.6249 119.229 16.6249V17.4562C119.11 17.4562 118.873 17.4562 118.635 17.4562C117.448 17.4562 116.973 17.0999 116.973 16.0312V13.0624H116.142V12.2312H116.973V10.8062H118.16Z" fill="white"/>
<path d="M120.772 9.97485H121.841V12.9436H121.96C122.197 12.3499 122.791 11.9936 123.622 11.9936C124.81 11.9936 125.522 12.7061 125.522 14.0124V17.4561H124.454V14.2499C124.454 13.4186 124.097 12.9436 123.266 12.9436C122.435 12.9436 121.96 13.5374 121.96 14.2499V17.3374H120.891V9.97485H120.772Z" fill="white"/>
<path d="M131.579 16.0312C131.341 16.9812 130.51 17.5749 129.204 17.5749C127.66 17.5749 126.71 16.5062 126.71 14.8437C126.71 13.1812 127.66 11.9937 129.204 11.9937C130.747 11.9937 131.579 13.0624 131.579 14.7249V15.0812H127.779C127.779 16.0312 128.372 16.6249 129.204 16.6249C129.797 16.6249 130.272 16.3874 130.51 16.0312H131.579ZM127.779 14.2499H130.51C130.51 13.4187 129.916 12.8249 129.204 12.8249C128.372 12.9437 127.897 13.4187 127.779 14.2499Z" fill="white"/>
</svg>
