<svg xmlns="http://www.w3.org/2000/svg" viewBox="0 0 512 512"><defs><style>.cls-1{fill:#f41112;}.cls-2{fill:#fff;}</style></defs><title>logo</title><g id="Layer_2" data-name="Layer 2"><g id="Layer_1-2" data-name="Layer 1"><rect class="cls-1" width="512" height="512"/><path class="cls-2" d="M158.29,173.23H76.8v3.84c9.39.43,12.37,1.71,12.37,11.52v66.13c0,10.24-3,11.09-12.37,11.52v3.41h45.65v-3.41c-11.52-.43-14.08-1.71-14.08-11.52V223.15H125c12.37,0,18.35,3,20.48,14.08h3.84V203.09h-3.84c-1.71,10.24-5.12,12.8-20.48,12.8H108.37V185.17c0-3.84.85-4.69,5.55-4.69h14.51c19.2,0,22.61,3.41,26,14.08h3.84Z"/><path class="cls-2" d="M220.16,259.84l-18.77-27.73,10.24-12.8c6.83-8.11,10.67-12.37,16.64-12.8v-3.84H201.81v3.84c4.69,0,6.83,1.28,6.83,4.27,0,2.56-3,6-5.55,8.53l-6,6.83-6.83-10.24c-1.71-2.13-3-3.84-3-6s2.56-3.41,6.83-3.41v-3.84H158.72v3.84c5.12,1.28,7.25,4.27,9.81,8.11L186,240.21l-14.51,17.07c-5.12,6-7.68,8.11-13.65,9v3.41h26v-3.41c-3.41,0-7.25-.85-7.25-3s2.56-5.12,6.83-10.24l6-7.25,7.25,10.67c2.56,3.84,3.84,5.55,3.84,6.83,0,1.71-2.56,2.56-7.25,2.56v3.41h36.27v-3.41C226.56,266.67,224,265.81,220.16,259.84Z"/><path class="cls-2" d="M281.17,173.23H235.52v3.84c9.81.43,12.37,1.71,12.37,11.52v66.13c0,10.24-2.56,11.09-12.37,11.52v3.41h44.8v-3.41c-10.24-.43-12.8-1.71-12.8-11.52V229.55h12.8c24.75,0,38-9.81,38-28.16C317.87,185.6,307.63,173.23,281.17,173.23ZM267.09,224V184.32c0-3.41,1.28-5.55,8.11-5.55,12.8,0,22.61,7.25,22.61,20.48C297.81,214.61,289.71,224,267.09,224Z"/><path class="cls-2" d="M363.52,201.39c-8.11,0-13.23,6.4-15.79,12.37h-.43V203.52c0-1.28,0-2.13-.85-2.13-1.28,0-17.07,4.27-24.32,5.55v3.84c6.4,0,8.11,1.28,8.11,8.53v38.83c0,6-2.56,7.25-8.11,8.11v3.41h35.41v-3.41c-6.4,0-10.24-1.71-10.24-9V219.73c2.13-3.41,4.69-5.55,7.25-5.55a8.1,8.1,0,0,1,3.84,1.28c1.28.85,3,3,6.83,3a7.65,7.65,0,0,0,7.68-7.68C373.33,206.51,370.35,201.39,363.52,201.39Z"/><path class="cls-2" d="M404.48,201.39c-19.2,0-32.43,14.93-32.43,35.41s13.23,35.41,32.43,35.41,32.43-14.93,32.43-35.41S423.68,201.39,404.48,201.39Zm0,64.85c-10.24,0-14.08-9-14.08-29.44s4.27-29.44,14.08-29.44c10.24,0,14.08,9,14.08,29.44C419,257.28,414.72,266.24,404.48,266.24Z"/><path class="cls-2" d="M77.09,303h25.46v4.1H92V335.6H87.56V307.12H77.09Z"/><path class="cls-2" d="M112.93,312.26a10.25,10.25,0,0,1,5.31-1.42V315a7.92,7.92,0,0,0-8.75,7.59v13h-4.33V311h4.33v5.31A8.91,8.91,0,0,1,112.93,312.26Z"/><path class="cls-2" d="M136.9,335.6v-3.45q-2.75,3.63-8.61,3.63a9.85,9.85,0,0,1-4.49-1,7.17,7.17,0,0,1-3-2.7,7.26,7.26,0,0,1-1-3.86,6.32,6.32,0,0,1,2.44-5.24,11,11,0,0,1,6.82-2h7.82v-1.16a5.09,5.09,0,0,0-1.61-4,6.86,6.86,0,0,0-4.68-1.42,13.39,13.39,0,0,0-7.59,2.65l-1.81-3a22.49,22.49,0,0,1,4.91-2.49,16.75,16.75,0,0,1,5.38-.77q4.61,0,7.12,2.26a8.16,8.16,0,0,1,2.56,6.3l0,16.2Zm-2.58-4.86a5.79,5.79,0,0,0,2.54-3.89v-2.47h-7.21a8.44,8.44,0,0,0-4.35.88,3,3,0,0,0-1.42,2.79,3.61,3.61,0,0,0,1.44,3,6.13,6.13,0,0,0,3.86,1.12A8.83,8.83,0,0,0,134.32,330.74Z"/><path class="cls-2" d="M171.86,301.07V335.6h-4.33v-4.89a9.77,9.77,0,0,1-3.75,3.79,10.91,10.91,0,0,1-5.47,1.33,11.75,11.75,0,0,1-6.17-1.61,11,11,0,0,1-4.17-4.47,14,14,0,0,1-1.49-6.54,13.57,13.57,0,0,1,1.49-6.45,11,11,0,0,1,4.17-4.4,11.8,11.8,0,0,1,6.12-1.58,11.36,11.36,0,0,1,5.54,1.3,9.32,9.32,0,0,1,3.72,3.77v-14.8ZM163.5,331a7.86,7.86,0,0,0,3-3.12,10.16,10.16,0,0,0,0-9.08,7.84,7.84,0,0,0-3-3.12,8.28,8.28,0,0,0-4.31-1.12,8.18,8.18,0,0,0-4.31,1.14,8,8,0,0,0-3,3.14,10.06,10.06,0,0,0,0,9,7.84,7.84,0,0,0,3,3.12,8.86,8.86,0,0,0,8.61,0Z"/><path class="cls-2" d="M199.09,314.22q2.93,3.38,2.93,9.38c0,.62,0,1.09,0,1.4H182.52a8.37,8.37,0,0,0,2.77,5.26,8.19,8.19,0,0,0,5.56,2,10.46,10.46,0,0,0,4.07-.79,9.82,9.82,0,0,0,3.28-2.24l2.38,2.47a12.48,12.48,0,0,1-4.37,3,14.62,14.62,0,0,1-5.68,1.07,13.07,13.07,0,0,1-6.45-1.56,10.94,10.94,0,0,1-4.37-4.4,14.15,14.15,0,0,1,0-12.92,11.36,11.36,0,0,1,4.35-4.42,12.56,12.56,0,0,1,6.38-1.6Q196.15,310.84,199.09,314.22Zm-1,7.42a7.14,7.14,0,0,0-7.64-7.22,7.79,7.79,0,0,0-5.42,2,8.21,8.21,0,0,0-2.58,5.26Z"/><path class="cls-2" d="M220.55,303H225v28.53h14.24v4.05H220.55Z"/><path class="cls-2" d="M248.59,301.95a3,3,0,0,1,0,4,2.75,2.75,0,0,1-3.86,0,3,3,0,0,1,0-4,2.75,2.75,0,0,1,3.86,0Zm-4.07,9h4.33V335.6h-4.33Z"/><path class="cls-2" d="M274.49,335.6l-7.87-12-4.79,5v7H257.5V301.07h4.33v22L273.75,311h5.07l-9.18,9.54,10.06,15.08Z"/><path class="cls-2" d="M301.77,314.22q2.93,3.38,2.93,9.38c0,.62,0,1.09,0,1.4H285.2a8.38,8.38,0,0,0,2.77,5.26,8.19,8.19,0,0,0,5.56,2,10.46,10.46,0,0,0,4.07-.79,9.83,9.83,0,0,0,3.28-2.24l2.37,2.47a12.44,12.44,0,0,1-4.37,3,14.6,14.6,0,0,1-5.68,1.07,13.06,13.06,0,0,1-6.45-1.56,10.92,10.92,0,0,1-4.37-4.4,14.17,14.17,0,0,1,0-12.92,11.37,11.37,0,0,1,4.35-4.42,12.56,12.56,0,0,1,6.38-1.6Q298.84,310.84,301.77,314.22Zm-1,7.42a7.14,7.14,0,0,0-7.63-7.22,7.78,7.78,0,0,0-5.42,2,8.19,8.19,0,0,0-2.58,5.26Z"/><path class="cls-2" d="M337.85,335.6v-3.45q-2.74,3.63-8.61,3.63a9.85,9.85,0,0,1-4.49-1,7.18,7.18,0,0,1-3-2.7,7.3,7.3,0,0,1-1-3.86,6.32,6.32,0,0,1,2.44-5.24,11,11,0,0,1,6.82-2h7.82v-1.16a5.09,5.09,0,0,0-1.61-4,6.85,6.85,0,0,0-4.68-1.42,13.38,13.38,0,0,0-7.59,2.65l-1.82-3a22.46,22.46,0,0,1,4.91-2.49,16.73,16.73,0,0,1,5.38-.77q4.61,0,7.12,2.26a8.18,8.18,0,0,1,2.56,6.3l0,16.2Zm-2.58-4.86a5.79,5.79,0,0,0,2.54-3.89v-2.47h-7.22a8.43,8.43,0,0,0-4.35.88,3,3,0,0,0-1.42,2.79,3.61,3.61,0,0,0,1.44,3,6.15,6.15,0,0,0,3.87,1.12A8.83,8.83,0,0,0,335.26,330.74Z"/><path class="cls-2" d="M384.47,305.91a10.14,10.14,0,0,1,3.33,8.1q0,5.45-3.35,8.45t-9.4,3h-8.1V335.6h-4.47V303H375Q381.14,303,384.47,305.91Zm-3.19,13.66a6.61,6.61,0,0,0,2.24-5.42,6.36,6.36,0,0,0-2.24-5.28q-2.23-1.79-6.42-1.79l-7.91,0v14.29h7.91Q379,321.41,381.28,319.57Z"/><path class="cls-2" d="M401.06,312.26a10.26,10.26,0,0,1,5.31-1.42V315a7.91,7.91,0,0,0-8.75,7.59v13h-4.33V311h4.33v5.31A8.91,8.91,0,0,1,401.06,312.26Z"/><path class="cls-2" d="M427.85,312.42a11.39,11.39,0,0,1,4.47,4.4,13.77,13.77,0,0,1,0,12.92,11.32,11.32,0,0,1-4.47,4.43,14.39,14.39,0,0,1-13.12,0,11.38,11.38,0,0,1-4.47-4.4,13.85,13.85,0,0,1,0-12.94,11.4,11.4,0,0,1,4.47-4.4,14.39,14.39,0,0,1,13.13,0ZM417,315.73a7.69,7.69,0,0,0-2.93,3.1,9.47,9.47,0,0,0-1,4.49,9.74,9.74,0,0,0,1,4.56A7.5,7.5,0,0,0,417,331a8.92,8.92,0,0,0,8.57,0,7.49,7.49,0,0,0,2.93-3.09,9.69,9.69,0,0,0,1.05-4.56,9.43,9.43,0,0,0-1.05-4.49,7.68,7.68,0,0,0-2.93-3.1,8.77,8.77,0,0,0-8.57,0Z"/></g></g></svg>